<svg xmlns="http://www.w3.org/2000/svg" fill="none" viewBox="0 0 1100 317"><g clip-path="url(#a)"><mask id="b" width="303" height="317" x="0" y="0" maskUnits="userSpaceOnUse" style="mask-type:luminance"><path fill="#fff" d="M303 0H0v317h303V0Z"/></mask><g mask="url(#b)"><path fill="#fff" d="M19 14 194 1c22-2 27-1 41 9l56 39c9 7 12 9 12 16v216c0 14-5 22-22 23L77 316c-13 1-19-1-25-10l-42-53c-7-10-10-17-10-26V35c0-11 5-20 19-21Z"/><path fill="#000" fill-rule="evenodd" d="M194 1 19 14C5 15 0 24 0 35v192c0 9 3 16 10 26l42 53c6 9 12 11 25 10l204-12c17-1 22-9 22-23V65c0-7-3-9-11-15l-1-1-56-39c-14-10-19-11-41-9ZM82 62c-17 1-20 1-30-7L28 36c-2-2-1-5 5-6l168-12c15-1 22 4 28 8l28 21c2 0 5 4 1 4L84 62h-2ZM63 279V96c0-8 2-12 9-12l200-12c7-1 10 4 10 12v182c0 8-1 14-12 15L79 292c-11 1-16-3-16-13Zm188-173c1 5 0 11-5 12l-10 1v136c-7 4-15 6-21 6-10 0-12-3-20-12l-60-95v92l19 4s0 11-15 11l-43 3c-1-3 0-9 5-10l11-3V130l-16-1c-1-6 2-14 11-15l45-3 63 96v-85l-16-1c-1-7 4-12 10-13l42-2Z" clip-rule="evenodd"/></g><path fill="#000" d="M538 74v171h-27l-81-117h-2v117h-30V74h27l81 117h1V74h31Zm81 174c-12 0-23-3-32-8-9-6-17-14-22-24-5-9-7-21-7-34 0-14 2-25 7-35s13-18 22-23c9-6 20-9 32-9 13 0 24 3 33 9 9 5 16 13 21 23s8 21 8 35c0 13-3 25-8 34-5 10-12 18-21 24-9 5-20 8-33 8Zm0-24c7 0 13-2 18-6 4-4 8-9 10-15s3-14 3-21c0-8-1-15-3-22-2-6-6-11-10-15-5-4-11-6-18-6s-12 2-17 6-8 9-10 15a65 65 0 0 0 0 43c2 6 5 11 10 15s10 6 17 6Zm144-107v23h-74v-23h74Zm-55-31h30v121l1 9 5 5 7 1a29 29 0 0 0 9-1l5 23a68 68 0 0 1-17 3c-8 0-15-1-21-3-6-3-11-7-14-12-4-5-5-12-5-20V86Zm73 159V117h30v128h-30Zm15-146c-4 0-8-2-12-5-3-3-5-7-5-12 0-4 2-8 5-11 4-3 8-5 12-5 5 0 9 2 13 5 3 3 5 7 5 11 0 5-2 9-5 12-4 3-8 5-13 5Zm95 149c-12 0-23-3-32-8-10-6-17-14-22-24-5-9-7-21-7-34 0-14 2-25 7-35s12-18 22-23c9-6 20-9 32-9 13 0 24 3 33 9 9 5 16 13 21 23s8 21 8 35c0 13-3 25-8 34-5 10-12 18-21 24-9 5-20 8-33 8Zm0-24c7 0 13-2 18-6 4-4 7-9 10-15 2-6 3-14 3-21 0-8-1-15-3-22-3-6-6-11-10-15-5-4-11-6-18-6s-12 2-17 6-8 9-10 15a65 65 0 0 0 0 43c2 6 5 11 10 15s10 6 17 6Zm110-54v75h-30V117h29v22h1c3-7 8-13 14-17 7-5 15-7 24-7s17 2 24 6c6 4 11 9 15 16 4 8 5 16 5 27v81h-30v-77c0-8-2-15-6-20-5-5-11-7-19-7-5 0-10 1-14 3-4 3-7 6-9 10-3 5-4 10-4 16Z"/></g><defs><clipPath id="a"><path fill="#fff" d="M0 0h1099v317H0z"/></clipPath></defs></svg>